<?xml version="1.0" standalone="no"?>
<!DOCTYPE svg PUBLIC "-//W3C//DTD SVG 20010904//EN"
 "http://www.w3.org/TR/2001/REC-SVG-20010904/DTD/svg10.dtd">
<svg version="1.0" xmlns="http://www.w3.org/2000/svg"
 width="700.000000pt" height="700.000000pt" viewBox="0 0 700.000000 700.000000"
 preserveAspectRatio="xMidYMid meet">
<metadata>
Created by potrace 1.14, written by Peter Selinger 2001-2017
</metadata>
<g transform="translate(0.000000,700.000000) scale(0.100000,-0.100000)"
fill="#000000" stroke="none">
<path d="M3070 6809 c-1426 -146 -2615 -1173 -2965 -2560 -75 -295 -100 -506
-100 -839 0 -269 10 -382 51 -610 163 -894 680 -1691 1429 -2202 464 -317 985
-510 1560 -579 143 -18 587 -18 725 -1 596 73 1090 254 1560 573 708 479 1219
1227 1408 2059 66 287 76 391 76 755 1 264 -3 355 -17 454 -35 245 -98 501
-172 706 -447 1231 -1547 2099 -2842 2240 -155 16 -565 19 -713 4z m2334
-1248 c75 -37 128 -91 165 -170 22 -47 26 -70 26 -141 0 -76 -4 -93 -33 -152
-38 -77 -92 -130 -171 -167 -47 -22 -70 -26 -141 -26 -71 0 -94 4 -141 26 -79
37 -133 90 -171 167 -29 59 -33 76 -33 152 0 71 4 94 26 140 87 186 293 260
473 171z m-1823 -452 c972 -99 1663 -988 1518 -1953 -81 -538 -431 -1022 -916
-1265 -251 -126 -487 -181 -770 -181 -369 0 -694 104 -998 319 -108 76 -315
285 -397 401 -128 180 -229 416 -280 650 -19 91 -22 135 -23 330 0 200 3 237
24 335 96 449 344 824 708 1072 253 173 484 256 828 296 66 8 208 6 306 -4z"/>
<path d="M3235 4535 c-372 -59 -693 -303 -856 -650 -64 -136 -91 -254 -96
-428 -6 -169 5 -257 48 -392 127 -397 457 -687 878 -771 65 -13 119 -15 240
-11 190 6 305 32 456 106 501 245 753 808 599 1339 -159 549 -706 897 -1269
807z"/>
</g>
</svg>
