<?xml version="1.0" encoding="UTF-8"?>
<svg width="123px" height="24px" viewBox="0 0 123 24" version="1.1" xmlns="http://www.w3.org/2000/svg" xmlns:xlink="http://www.w3.org/1999/xlink">
    <title>unisante</title>
    <g id="Page-Home" stroke="none" stroke-width="1" fill="none" fill-rule="evenodd">
        <g id="Home-Desktop" transform="translate(-865.000000, -1560.000000)" fill-rule="nonzero">
            <g id="Main" transform="translate(60.000000, 1522.000000)">
                <g id="Trusted-By" transform="translate(0.000000, 0.000000)">
                    <g id="Logos" transform="translate(237.000000, 0.000000)">
                        <g id="unisante" transform="translate(568.000000, 38.000000)">
                            <g id="Calque_1">
                                <rect id="Rectangle" fill="#D20F2C" x="37.2312849" y="0.752607639" width="3.56102044" height="3.56229587"></rect>
                                <polygon id="Rectangle" fill="#3A4346" transform="translate(116.146962, 2.530823) rotate(-24.999240) translate(-116.146962, -2.530823) " points="113.978114 0.74970179 118.315811 0.74970179 118.315811 4.31194503 113.978114 4.31194503"></polygon>
                                <path d="M10.2379338,22.1722986 C8.94591595,23.3699341 7.52890531,24 5.82747219,24 C2.14145892,24 0,22.0473058 0,17.4480795 L0,7.74327849 L2.89779313,7.74327849 L2.89779313,16.9736169 C2.89779313,20.2183289 4.12603908,21.1953138 6.26877344,21.1953138 C7.62328766,21.1953138 8.82092311,20.7540125 10.1754373,19.6520349 L10.1754373,7.74327849 L13.0732305,7.74327849 L13.0732305,23.6211952 L10.8373892,23.6211952 L10.2379338,22.1722986 Z" id="Path" fill="#D20F2C"></path>
                                <path d="M21.8010467,11.7137142 L21.8010467,23.6211952 L18.9032535,23.6211952 L18.9032535,7.74327849 L21.1403702,7.74327849 L21.7385502,9.19217505 C23.0305681,7.9945396 24.4475787,7.36447366 26.1490118,7.36447366 C29.8350251,7.36447366 31.976484,9.31716789 31.976484,13.9163941 L31.976484,23.6186443 L29.0786909,23.6186443 L29.0786909,14.3883059 C29.0786909,11.1435938 27.8504449,10.166609 25.7077106,10.166609 C24.3531963,10.1691599 23.1568363,10.6104611 21.8010467,11.7137142 Z" id="Path" fill="#D20F2C"></path>
                                <polygon id="Path" fill="#D20F2C" points="37.5628986 7.74327849 40.4606917 7.74327849 40.4606917 23.6211952 37.5628986 23.6211952 37.5628986 7.74327849"></polygon>
                                <path d="M70.3900991,22.0460303 C69.318732,23.148008 67.7129566,23.9362281 65.6327187,23.9362281 C62.6711537,23.9362281 60.4034265,22.5817139 60.4034265,19.1788477 C60.4034265,15.7759815 63.4274879,13.9495555 70.1375626,13.4457578 C69.8544155,10.95738 68.3736331,10.0428916 66.2627846,10.0428916 C64.530741,10.0428916 63.0499585,10.5785752 61.4429078,11.8068211 L61.9160949,8.71898788 C63.3649915,7.77388898 64.8138881,7.36447366 66.6097035,7.36447366 C70.4219851,7.36447366 73.0672417,9.19217505 73.0672417,14.0120519 L73.0672417,23.6199197 L70.9245073,23.6199197 L70.3900991,22.0460303 Z M66.3584424,21.6047291 C67.7448426,21.6047291 69.225625,21.0065491 70.170724,20.0614502 L70.170724,15.430338 C65.3508471,15.8397533 63.3037693,17.0373888 63.3037693,19.0844653 C63.3024951,20.7540125 64.3100904,21.6047291 66.3584424,21.6047291 Z" id="Shape" fill="#3A4346"></path>
                                <path d="M81.5425213,11.7137142 L81.5425213,23.6211952 L78.6447282,23.6211952 L78.6447282,7.74327849 L80.8818449,7.74327849 L81.4800249,9.19217505 C82.7720427,7.9945396 84.1890533,7.36447366 85.8904864,7.36447366 C89.5764997,7.36447366 91.7179586,9.31716789 91.7179586,13.9163941 L91.7179586,23.6186443 L88.8201655,23.6186443 L88.8201655,14.3883059 C88.8201655,11.1435938 87.5919196,10.166609 85.4491852,10.166609 C84.094671,10.1691599 82.8970355,10.6104611 81.5425213,11.7137142 Z" id="Path" fill="#3A4346"></path>
                                <path d="M102.744113,23.9681141 C99.9088158,23.9681141 98.0505039,22.8661364 98.0505039,18.8957007 L98.0505039,9.94850926 L96.0659238,9.94850926 L96.0659238,7.74327849 L98.0505039,7.74327849 L98.0505039,2.60836865 L100.948297,2.60836865 L100.948297,7.74327849 L105.264376,7.74327849 L105.264376,9.94850926 L100.948297,9.94850926 L100.948297,18.67505 C100.948297,20.5027514 101.610249,21.2896961 103.310407,21.2896961 C103.940473,21.2896961 104.759303,21.1315419 105.453141,20.8802808 L105.075612,23.5574233 C104.256781,23.8737317 103.657326,23.9681141 102.744113,23.9681141 Z" id="Path" fill="#3A4346"></path>
                                <path d="M116.636174,23.9362281 C112.478249,23.9362281 109.043496,21.636615 109.043496,15.6191027 C109.043496,10.0428916 112.414477,7.3657491 116.321141,7.3657491 C120.888481,7.3657491 122.999329,10.3898105 122.999329,16.1547863 L111.973176,16.1547863 C112.193826,20.1877185 114.399057,21.3521925 116.919321,21.3521925 C118.935787,21.3521925 120.541562,20.8483949 121.991734,19.903296 L121.582319,22.8010891 C120.291576,23.5574233 118.810794,23.9362281 116.636174,23.9362281 Z M112.036947,13.9495555 L120.448455,13.9495555 C120.070926,11.1767552 118.716412,9.82224099 116.384913,9.82224099 C114.430943,9.82351643 112.510135,10.95738 112.036947,13.9495555 Z" id="Shape" fill="#3A4346"></path>
                                <path d="M51.7572383,14.2990253 L49.3377341,16.2721265 C49.5226724,16.3384492 49.7127126,16.4034965 49.9129562,16.4685438 L50.889941,16.7516909 C53.0951718,17.4442532 53.5670835,17.9493263 53.5670835,19.051304 C53.5670835,20.7208512 52.3694481,21.3509171 50.3848679,21.3509171 C48.4002878,21.3509171 46.478204,20.7527371 45.0930793,19.7438663 L45.5649911,22.7054313 C46.6363582,23.4298796 48.5265561,23.8711809 50.5111362,23.8711809 C54.1971495,23.8711809 56.3386084,22.1697477 56.3386084,18.8625393 C56.3386084,16.4634421 55.2889237,15.389524 51.7572383,14.2990253 Z" id="Path" fill="#3A4346"></path>
                            </g>
                            <g id="Calque_2" transform="translate(45.692534, 7.336414)" fill="#D20F2C">
                                <path d="M3.64520035,8.93698789 L6.06470456,6.96388667 C6.02771688,6.95240773 5.99072921,6.9409288 5.95246609,6.92944987 L5.03925312,6.64630283 C3.27532358,6.11061924 2.77152592,5.54304972 2.77152592,4.47295797 C2.77152592,3.24471203 3.59035655,2.52026375 5.54432622,2.52026375 C6.99322278,2.52026375 8.78903825,3.02406141 10.0172842,3.7178992 L9.6397548,0.945098905 C8.56838762,0.377529387 6.96261229,0 5.41805794,0 C1.95269529,0 0,1.60705077 0,4.53672983 C-0.00127437547,6.96898842 1.14661903,8.03780472 3.64520035,8.93698789 Z" id="Path"></path>
                            </g>
                        </g>
                    </g>
                </g>
            </g>
        </g>
    </g>
</svg>