<?xml version="1.0" encoding="UTF-8"?>
<svg width="104px" height="30px" viewBox="0 0 104 30" version="1.1" xmlns="http://www.w3.org/2000/svg" xmlns:xlink="http://www.w3.org/1999/xlink">
    <title>epfl</title>
    <g id="Page-Home" stroke="none" stroke-width="1" fill="none" fill-rule="evenodd">
        <g id="Home-Desktop" transform="translate(-373.000000, -1557.000000)" fill="#FF0000" fill-rule="nonzero">
            <g id="Main" transform="translate(60.000000, 1522.000000)">
                <g id="Trusted-By" transform="translate(0.000000, 0.000000)">
                    <g id="Logos" transform="translate(237.000000, 0.000000)">
                        <g id="epfl" transform="translate(76.000000, 35.000000)">
                            <polygon id="Path" points="0 12.3287671 6.61662674 12.3287671 6.61662674 5.5935085 22.1917808 5.5935085 22.1917808 0 0 0"></polygon>
                            <polygon id="Path" points="0 30 22.1917808 30 22.1917808 24.4064915 6.61662674 24.4064915 6.61662674 17.6712329 0 17.6712329"></polygon>
                            <rect id="Rectangle" x="6.57534247" y="12.3287671" width="13.9726027" height="5.75342466"></rect>
                            <path d="M48.2023013,2.7538277 C47.2973822,1.86827792 46.2180229,1.18728813 45.0352369,0.755662175 C43.7383876,0.251887392 42.1656277,0 40.3169572,0 L27.1232877,0 L27.1232877,30 L33.497031,30 L33.497031,17.7718197 L40.325297,17.7718197 C42.1725776,17.7718197 43.7453375,17.5192267 45.0435767,17.0140408 C46.2267504,16.5832288 47.3062693,15.9021383 48.2106412,15.0158753 C49.0075464,14.213695 49.6155238,13.2390054 49.9891178,12.1646793 C50.734221,10.0370114 50.734221,7.71364129 49.9891178,5.58597333 C49.6096764,4.51812233 48.9990752,3.55030535 48.2023013,2.7538277 Z M43.773832,10.6025542 C43.4465444,11.0451525 43.0109851,11.3932119 42.5103422,11.6122204 C41.93144,11.8668629 41.3176484,12.0303195 40.6901662,12.0969449 C39.975268,12.1813206 39.2561076,12.2230207 38.5363956,12.221855 L33.4886911,12.221855 L33.4886911,5.54573123 L38.5363956,5.54573123 C39.2561076,5.54456551 39.975268,5.58626568 40.6901662,5.67064136 C41.3174683,5.73826725 41.9311132,5.90168481 42.5103422,6.15536584 C43.0106312,6.3759784 43.4459787,6.72459784 43.773832,7.1671488 C44.1103616,7.67240723 44.2770993,8.27452307 44.2492044,8.88379313 C44.2778552,9.49381166 44.1110713,10.0968369 43.773832,10.6025542 L43.773832,10.6025542 Z" id="Shape"></path>
                            <polygon id="Path" points="87.5740116 24.4525187 87.5740116 0 80.9589041 0 80.9589041 30 103.150685 30 103.150685 24.4525187"></polygon>
                            <polygon id="Path" points="54.6575342 12.3287671 61.274161 12.3287671 61.274161 5.5935085 76.8493151 5.5935085 76.8493151 0 54.6575342 0"></polygon>
                            <rect id="Rectangle" x="54.6575342" y="17.6712329" width="6.57534247" height="12.3287671"></rect>
                            <rect id="Rectangle" x="61.6438356" y="12.3287671" width="13.9726027" height="5.75342466"></rect>
                        </g>
                    </g>
                </g>
            </g>
        </g>
    </g>
</svg>