<?xml version="1.0" encoding="UTF-8"?>
<svg width="131px" height="30px" viewBox="0 0 131 30" version="1.1" xmlns="http://www.w3.org/2000/svg" xmlns:xlink="http://www.w3.org/1999/xlink">
    <title>logo-hug</title>
    <defs>
        <polygon id="path-1" points="0 30 130.594819 30 130.594819 0 0 0"></polygon>
    </defs>
    <g id="Page-Home" stroke="none" stroke-width="1" fill="none" fill-rule="evenodd">
        <g id="Home-Desktop" transform="translate(-1113.000000, -1557.000000)">
            <g id="Main" transform="translate(60.000000, 1522.000000)">
                <g id="Trusted-By" transform="translate(0.000000, 0.000000)">
                    <g id="Logos" transform="translate(237.000000, 0.000000)">
                        <g id="logo-hug" transform="translate(816.000000, 35.000000)">
                            <path d="M18.4993604,16.2807803 L18.4993604,10.9945635 L8.64166933,10.9945635 L8.64166933,0.534857691 L0,0.534857691 L0,29.4523505 L8.64246882,29.4523505 L8.64246882,17.3880716 L18.5121522,17.3880716 L18.5121522,29.4523505 L27.1074512,29.4523505 C25.412536,29.0358171 23.901503,28.3850336 22.6087304,27.501599 C19.007835,25.003198 18.4993604,20.5572434 18.4993604,16.2807803" id="Path" fill="#93CFA9" fill-rule="nonzero"></path>
                            <path d="M45.653182,2.03709626 L45.653182,0.534058203 L37.5623601,0.534058203 L37.5623601,15.2142629 C37.601535,9.26766869 40.6899584,4.5618804 45.653182,2.03709626 M37.5615606,15.448513 L37.5615606,16.1536617 C37.5615606,20.4301247 36.884394,22.8861529 32.0970579,22.8861529 C27.9988807,22.8861529 27.2097857,20.512472 27.1106492,17.0602814 L27.1106492,29.4523505 L27.1066517,29.4523505 C28.5809082,29.8145187 30.1942757,30 31.9283658,30 C36.3615286,30 40.0079949,28.7176207 42.4648225,26.3207547 C39.3995843,23.7647905 37.5935401,19.9992005 37.5615606,15.448513" id="Shape" fill="#12C2F2" fill-rule="nonzero"></path>
                            <path d="M27.1106492,17.0610809 C27.1026543,16.7652702 27.0986569,16.4638631 27.0986569,16.1536617 L27.0986569,0.535657179 L18.5113527,0.535657179 L18.5113527,10.995363 L18.4993604,10.995363 L18.4993604,16.2815798 C18.4993604,20.5588423 19.007835,25.0039974 22.6079309,27.5023985 C23.8999041,28.3858331 25.4117365,29.0366166 27.1066517,29.45315 L27.1106492,29.45315 L27.1106492,17.0610809 L27.1106492,17.0610809 Z" id="Path" fill="#00B7B1" fill-rule="nonzero"></path>
                            <path d="M55.3165974,6.77566358 C57.6918772,6.77566358 59.9880077,7.24096578 62.0410937,8.08842341 L64.0949792,1.8628078 C62.0410937,0.973776783 58.7392069,0 54.7529581,0 C51.3231532,0 48.2347298,0.723536936 45.653182,2.03709626 L45.653182,15.2430445 C45.653182,10.204669 49.6794052,6.77486409 55.3165974,6.77486409" id="Path" fill="#65C6C1" fill-rule="nonzero"></path>
                            <path d="M37.5615606,15.448513 C37.5615606,15.4085385 37.5591621,15.3693636 37.5591621,15.3285897 C37.5591621,15.2902143 37.5615606,15.2526383 37.5615606,15.2142629 L37.5615606,15.448513" id="Path" fill="#65C2BF" fill-rule="nonzero"></path>
                            <path d="M56.2432043,22.9932843 C55.5988168,23.1627758 54.9536297,23.2043492 54.1885193,23.2043492 C49.317237,23.2043492 45.653182,19.9440358 45.653182,15.2438439 L45.653182,15.8570515 C45.653182,20.1335146 45.1870803,23.6056924 42.5607611,26.231212 L42.4648225,26.3207547 C45.2582347,28.6520627 49.0941797,29.9792133 53.5857051,29.9792133 C56.2024304,29.9792133 59.0222258,29.5554845 61.5182283,28.7080269 C61.9611449,28.5401343 62.6455069,28.285897 63.9342821,27.7350496 L63.9342821,14.8209146 L56.2432043,14.8209146 L56.2432043,22.9932843 Z" id="Path" fill="#65C6C1" fill-rule="nonzero"></path>
                            <path d="M45.653182,15.856252 L45.653182,2.03709626 C40.6899584,4.5618804 37.601535,9.2668692 37.5623601,15.2142629 L37.5623601,15.448513 C37.5935401,19.9992005 39.3995843,23.763991 42.464023,26.3215542 C42.4960026,26.2903742 42.5295811,26.2615926 42.5599616,26.2304125 C45.1870803,23.6056924 45.653182,20.1335146 45.653182,15.856252" id="Path" fill="#00B3BE" fill-rule="nonzero"></path>
                            <path d="M79.0925807,8.77038695 L79.0925807,5.39814519 L75.2526383,5.39814519 L75.2526383,8.77038695 L74.4491525,8.77038695 L74.4491525,1.7188999 L75.2526383,1.7188999 L75.2526383,4.75215862 L79.0925807,4.75215862 L79.0925807,1.7188999 L79.8960665,1.7188999 L79.8960665,8.77038695 L79.0925807,8.77038695 Z M83.4697793,4.36200831 C82.6135273,4.36200831 81.9899264,5.12152223 81.9899264,6.18004477 C81.9899264,7.39526703 82.603134,8.20994563 83.5121522,8.20994563 C84.3907899,8.20994563 84.9720179,7.46961944 84.9720179,6.35913016 C84.9720179,5.1439079 84.3795971,4.36200831 83.4697793,4.36200831 L83.4697793,4.36200831 Z M84.6338343,3.28269907 L83.5121522,2.52158618 L82.3488967,3.28269907 L81.9579469,2.8285897 L83.5121522,1.58138791 L85.0247841,2.8285897 L84.6338343,3.28269907 L84.6338343,3.28269907 Z M83.4066198,8.88631276 C82.1058523,8.88631276 81.2280141,7.85017589 81.2280141,6.30636393 C81.2280141,5.56683722 81.3863128,5.06955548 81.7772626,4.58346658 C82.2329709,4.01263192 82.8669651,3.69603454 83.5545251,3.69603454 C84.8552926,3.69603454 85.7443236,4.74256476 85.7443236,6.25439719 C85.7443236,7.76543012 84.7497602,8.88631276 83.4066198,8.88631276 Z M89.2764631,4.42516789 C88.7152223,4.42516789 88.1236009,4.79533099 87.6790854,5.40853854 L87.6790854,7.28973457 C88.1236009,7.91333547 88.6416693,8.24112568 89.1701311,8.24112568 C90.0055964,8.24112568 90.5876239,7.41685321 90.5876239,6.2535977 C90.5876239,5.17588743 90.0479693,4.42516789 89.2764631,4.42516789 M89.1597378,8.90789894 C88.5777103,8.90789894 88.1124081,8.67524784 87.6790854,8.16757275 L87.6790854,11.2120243 L86.9595459,11.2120243 L86.9595459,3.85433323 L87.6790854,3.85433323 L87.6790854,4.58346658 C88.3130796,3.95986569 88.8111609,3.7056284 89.4347618,3.7056284 C90.5772306,3.7056284 91.3591302,4.67860569 91.3591302,6.08490566 C91.3591302,7.75583626 90.4605053,8.90709946 89.1597378,8.90709946" id="Shape" fill="#58585B" fill-rule="nonzero"></path>
                            <g id="Clipped">
                                <mask id="mask-2" fill="white">
                                    <use xlink:href="#path-1"></use>
                                </mask>
                                <g id="a"></g>
                                <path d="M92.5863447,8.77038695 L93.3162776,8.77038695 L93.3162776,3.85353374 L92.5863447,3.85353374 L92.5863447,8.77038695 Z M92.9565078,3.30588694 C92.8302152,3.3063109 92.7089721,3.25633015 92.6196692,3.16702727 C92.5303664,3.07772439 92.4803856,2.9564813 92.4808096,2.83018868 C92.4808096,2.56635753 92.6918772,2.35449312 92.9565078,2.35449312 C93.220339,2.35449312 93.4330029,2.56555804 93.4330029,2.83018868 C93.4330029,3.09401983 93.2211385,3.30588694 92.9565078,3.30588694 L92.9565078,3.30588694 Z M96.1288775,8.87511992 C95.273425,8.87511992 94.8816757,8.50575632 94.8816757,7.7126639 L94.8816757,4.41317557 L94.0558043,4.41317557 L94.0558043,3.85353374 L94.8808762,3.85353374 L94.8808762,2.51199232 L95.6004157,2.51199232 L95.6004157,3.85353374 L96.8588104,3.85353374 L96.8588104,4.41397506 L95.5996162,4.41397506 L95.5996162,7.33210745 C95.5996162,7.54317237 95.6108091,7.75503678 95.6315958,7.85017589 C95.684362,8.13479373 95.9178126,8.27310521 96.3615286,8.27310521 C96.5206268,8.27310521 96.646946,8.25151903 96.8588104,8.20914615 L96.8588104,8.76958746 C96.4990406,8.85433323 96.3511353,8.87511992 96.1288775,8.87511992 M100.317397,6.27518388 C98.9310841,6.64454749 98.3074832,7.0682763 98.3074832,7.62791813 C98.3074832,7.945315 98.529741,8.16757275 98.8575312,8.16757275 C99.2700672,8.16757275 99.8305085,7.83978254 100.317397,7.30012792 L100.317397,6.27598337 L100.317397,6.27518388 Z M101.172849,8.88631276 C100.677167,8.88631276 100.39095,8.57930924 100.35897,8.03086025 C100.169492,8.20994563 100.095139,8.27310521 99.9784138,8.35865046 C99.5554845,8.6848417 99.1325552,8.85433323 98.7096258,8.85433323 C98.0428526,8.85433323 97.5567637,8.35865046 97.5567637,7.68148385 C97.5567637,6.74048609 98.4441957,6.08490566 100.317397,5.67236968 L100.317397,5.46050528 C100.317397,4.63543332 100.147905,4.37160217 99.6298369,4.37160217 C99.4299648,4.37160217 99.2492805,4.41317557 99.0166294,4.51870803 C98.7096258,4.64662616 98.4873681,4.77294531 98.0644388,5.10073553 L97.6838823,4.64582667 C98.2755037,4.08618484 99.1221618,3.69443556 99.7465622,3.69443556 C100.190278,3.69443556 100.550048,3.8423409 100.761912,4.12855772 C100.972977,4.39238887 101.036137,4.70898625 101.036137,5.35417333 L101.036137,7.74384394 C101.036137,7.81739687 101.04653,7.89174928 101.057723,7.96610169 C101.100096,8.16677327 101.216821,8.26191238 101.417493,8.26191238 C101.491046,8.26191238 101.544611,8.25071954 101.681324,8.21953949 L101.776463,8.71602175 C101.554205,8.83274704 101.37432,8.88551327 101.173649,8.88551327 L101.172849,8.88631276 Z M105.773905,8.77038695 L105.773905,7.99808123 C105.224656,8.58010873 104.557883,8.89670611 103.89111,8.89670611 C103.447394,8.89670611 103.087624,8.73840742 102.854973,8.46338343 C102.611928,8.16757275 102.537576,7.81899584 102.537576,7.00511673 L102.537576,3.85353374 L103.257115,3.85353374 L103.257115,6.78285897 C103.257115,7.19459546 103.267509,7.37448033 103.289095,7.54397186 C103.341861,7.95570835 103.637672,8.19955229 104.060601,8.19955229 C104.579469,8.19955229 105.23425,7.81899584 105.773905,7.20498881 L105.773905,3.85353374 L106.51503,3.85353374 L106.51503,8.77038695 L105.773905,8.77038695 L105.773905,8.77038695 Z M111.15686,8.77038695 L109.666613,6.68771986 L108.195555,8.77038695 L107.340102,8.77038695 L109.232491,6.15925807 L107.519188,3.85353374 L108.459386,3.85353374 L109.740166,5.61960345 L111.020147,3.85353374 L111.855612,3.85353374 L110.152702,6.15925807 L112.098657,8.77038695 L111.15686,8.77038695 Z M77.018708,18.4122162 C76.2152223,18.4122162 75.5908219,18.1899584 75.104733,17.7462424 C74.6170451,17.3017269 74.417173,16.6997122 74.417173,15.7267349 L74.417173,11.2128238 L75.2206588,11.2128238 L75.2206588,15.7267349 C75.2206588,16.2871762 75.2526383,16.4990406 75.410937,16.815638 C75.6763671,17.3760793 76.2895747,17.6934762 77.0610809,17.6934762 C77.6007355,17.6934762 78.0764311,17.5559642 78.457787,17.2913335 C78.9862488,16.9211705 79.145347,16.4878478 79.145347,15.5044771 L79.145347,11.2128238 L79.8856732,11.2128238 L79.8856732,15.653182 C79.8856732,17.3760793 78.8063639,18.4122162 77.018708,18.4122162 M84.728174,18.2643108 L84.728174,15.2934122 C84.728174,14.9232491 84.728174,14.8600895 84.7177806,14.659418 C84.6858011,14.14055 84.4115766,13.8663256 83.9566677,13.8663256 C83.4066198,13.8663256 82.8141989,14.1941158 82.2217781,14.8393028 L82.2217781,18.2643108 L81.4918452,18.2643108 L81.4918452,13.3474576 L82.2217781,13.3474576 L82.2217781,14.0773905 C82.4648225,13.8559322 82.5495683,13.7919731 82.7086665,13.6760473 C83.153182,13.3586505 83.6072913,13.2003518 84.073393,13.2003518 C84.5386952,13.2003518 84.8872721,13.3482571 85.1415094,13.6440678 C85.3845539,13.9398785 85.4581068,14.2572753 85.4581068,15.0079949 L85.4581068,18.2643108 L84.728174,18.2643108 L84.728174,18.2643108 Z M86.9491525,18.2635114 L87.6790854,18.2635114 L87.6790854,13.3474576 L86.9491525,13.3474576 L86.9491525,18.2635114 Z M87.3193156,12.7998142 C87.1928848,12.8004485 87.0714355,12.7505621 86.9819591,12.6612359 C86.8924828,12.5719097 86.8423926,12.4505443 86.8428179,12.3241126 C86.8428179,12.0602814 87.054685,11.8492165 87.3193156,11.8492165 C87.5839463,11.8492165 87.7958107,12.0602814 87.7958107,12.3241126 C87.7958107,12.5887432 87.5839463,12.7998142 87.3193156,12.7998142 Z M91.1792453,18.2643108 L90.5132715,18.2643108 L88.5033579,13.3474576 L89.3284298,13.3474576 L90.8946274,17.3017269 L92.5335785,13.3482571 L93.284298,13.3482571 L91.1792453,18.2643108 Z M96.0657179,13.8127598 C95.3677646,13.8127598 94.8169172,14.3524145 94.6794052,15.1878798 L97.2505596,15.1351135 C97.2297729,14.3204349 96.7740646,13.8127598 96.0657179,13.8127598 M97.5463703,17.8621682 C96.9539495,18.2323313 96.4670611,18.39063 95.9274065,18.39063 C94.6482251,18.39063 93.8127598,17.396866 93.8127598,15.8850336 C93.8127598,14.3204349 94.7961305,13.1891589 96.1400704,13.1891589 C97.3448993,13.1891589 98.0220659,14.0350176 98.0220659,15.5044771 L98.0220659,15.7371282 L94.626639,15.7371282 L94.626639,15.8962264 C94.626639,17.0267029 95.1447074,17.70307 96.0225456,17.70307 C96.3649815,17.6992397 96.7018635,17.6160454 97.0067157,17.4600256 C97.2393668,17.3440998 97.3560921,17.2697474 97.7470419,16.9963224 L98.0964183,17.4496322 C97.9053406,17.6399105 97.8213943,17.6926767 97.5463703,17.8621682 M101.670931,14.0142309 C101.501439,13.9398785 101.427087,13.9294851 101.321554,13.9294851 C100.877838,13.9294851 100.317397,14.4899264 99.9680205,15.2726255 L99.9680205,18.2643108 L99.248481,18.2643108 L99.248481,13.3482571 L99.9680205,13.3482571 L99.9680205,14.2996482 C100.009594,14.2149025 100.051967,14.1517429 100.073553,14.1197634 C100.200672,13.9294851 100.443716,13.665654 100.65558,13.5065558 C100.877838,13.3378638 101.131276,13.2427247 101.416693,13.2427247 C101.575791,13.2427247 101.659738,13.2635114 101.872402,13.3378638 L101.670931,14.0142309 Z M104.980812,18.0316597 C104.589063,18.2850975 104.154941,18.3914295 103.458587,18.3914295 C103.309082,18.3914295 103.182763,18.3802366 103.056444,18.3698433 C102.759834,18.3482571 102.611928,18.3170771 102.240966,18.2003518 L102.368884,17.6295171 C102.496003,17.6614966 102.590342,17.6830828 102.664695,17.7038695 C102.896546,17.7462424 103.182763,17.7774224 103.415414,17.7774224 C104.325232,17.7774224 104.896067,17.4496322 104.896067,16.9315638 C104.896067,16.7316917 104.800128,16.5510074 104.610649,16.3927087 C104.45235,16.2551967 104.314039,16.1816437 103.838343,15.9489926 C103.235529,15.653182 103.045251,15.5572434 102.822993,15.3893508 C102.549606,15.1895714 102.388487,14.8709012 102.389671,14.5322993 C102.389671,13.7176207 103.129997,13.1787656 104.260473,13.1787656 C104.398785,13.1787656 104.548289,13.1899584 104.716182,13.2107451 C104.980013,13.2315318 105.118324,13.253118 105.457307,13.3266709 L105.308602,13.9078989 C104.854493,13.8135593 104.568276,13.7815798 104.293252,13.7815798 C103.605692,13.7815798 103.17157,14.0350176 103.17157,14.4371602 C103.17157,14.7225776 103.363447,14.8704829 103.987048,15.1766869 L104.335625,15.3469779 C104.863287,15.5996162 105.097538,15.7371282 105.318996,15.9489926 C105.550847,16.1704509 105.689159,16.5086345 105.689159,16.8364247 C105.689159,17.3129197 105.435721,17.7462424 104.980812,18.0316597 M106.810841,18.2635114 L107.540774,18.2635114 L107.540774,13.3474576 L106.810841,13.3474576 L106.810841,18.2635114 Z M107.180205,12.7998142 C107.053847,12.8004501 106.932478,12.7505385 106.843129,12.6611887 C106.753779,12.571839 106.703867,12.4504706 106.704503,12.3241126 C106.704503,12.0602814 106.916374,11.8492165 107.180205,11.8492165 C107.444835,11.8492165 107.6567,12.0602814 107.6567,12.3241126 C107.6567,12.5887432 107.444835,12.7998142 107.180205,12.7998142 Z M110.353374,18.3698433 C109.496322,18.3698433 109.105373,17.9996802 109.105373,17.2065878 L109.105373,13.9086984 L108.279501,13.9086984 L108.279501,13.3482571 L109.105373,13.3482571 L109.105373,12.0051167 L109.824912,12.0051167 L109.824912,13.3482571 L111.082507,13.3482571 L111.082507,13.9086984 L109.824113,13.9086984 L109.824113,16.8268308 C109.824113,17.0378957 109.834506,17.2497602 109.855293,17.3440998 C109.908858,17.6295171 110.141509,17.7670291 110.586025,17.7670291 C110.744324,17.7670291 110.871442,17.7462424 111.082507,17.70307 L111.082507,18.2635114 C110.722737,18.3490566 110.574832,18.3698433 110.353374,18.3698433 M114.541094,15.7691078 C113.154781,16.1392709 112.53118,16.5622002 112.53118,17.1226415 C112.53118,17.4392389 112.753438,17.6614966 113.081228,17.6614966 C113.493764,17.6614966 114.054205,17.3337064 114.541094,16.7948513 L114.541094,15.7691078 L114.541094,15.7691078 Z M115.396546,18.3802366 C114.900863,18.3802366 114.614647,18.0740326 114.582667,17.5239846 C114.393188,17.70307 114.318836,17.7670291 114.202111,17.8517749 C113.779181,18.1795651 113.356252,18.3490566 112.933323,18.3490566 C112.266549,18.3490566 111.780461,17.8517749 111.780461,17.1754077 C111.780461,16.2336105 112.668692,15.5788295 114.541094,15.1662936 L114.541094,14.9552287 C114.541094,14.1309562 114.371602,13.8663256 113.853534,13.8663256 C113.653662,13.8663256 113.472977,13.9086984 113.240326,14.0142309 C112.933323,14.14055 112.711065,14.2676687 112.288136,14.5954589 L111.907579,14.14055 C112.499201,13.5809082 113.345859,13.1891589 113.970259,13.1891589 C114.414775,13.1891589 114.773745,13.3378638 114.985609,13.6232811 C115.196674,13.8871122 115.259834,14.2045091 115.259834,14.8496962 L115.259834,17.2385673 C115.259834,17.3129197 115.270227,17.3864727 115.28142,17.4600256 C115.323793,17.6614966 115.440518,17.7566358 115.64119,17.7566358 C115.714743,17.7566358 115.768308,17.7462424 115.90582,17.7142629 L116.00016,18.2115446 C115.778702,18.3274704 115.598017,18.3802366 115.397346,18.3802366 L115.396546,18.3802366 Z M116.782859,18.2635114 L117.512792,18.2635114 L117.512792,13.3474576 L116.782859,13.3474576 L116.782859,18.2635114 Z M117.152223,12.7998108 C117.026003,12.8002362 116.904841,12.7502301 116.815665,12.6609037 C116.726488,12.5715774 116.676686,12.4503314 116.67732,12.3241126 C116.67732,12.0602814 116.888391,11.8492165 117.152223,11.8492165 C117.417653,11.8492165 117.629517,12.0602814 117.629517,12.3241126 C117.629517,12.5887432 117.417653,12.7998108 117.152223,12.7998108 L117.152223,12.7998108 Z M121.447074,14.0142309 C121.277582,13.9398785 121.20323,13.9294851 121.097697,13.9294851 C120.653981,13.9294851 120.09354,14.4899264 119.744164,15.2726255 L119.744164,18.2643108 L119.024624,18.2643108 L119.024624,13.3482571 L119.744164,13.3482571 L119.744164,14.2996482 C119.785737,14.2149025 119.828909,14.1517429 119.849696,14.1197634 C120.012188,13.8876008 120.208349,13.6809315 120.431724,13.5065558 C120.648668,13.3357567 120.916726,13.2428373 121.192837,13.2427247 C121.351935,13.2427247 121.435881,13.2635114 121.648545,13.3378638 L121.447074,14.0142309 L121.447074,14.0142309 Z M124.376399,13.8127598 C123.678446,13.8127598 123.127598,14.3524145 122.990086,15.1878798 L125.560441,15.1351135 C125.539655,14.3204349 125.084746,13.8127598 124.376399,13.8127598 M125.857051,17.8621682 C125.264631,18.2323313 124.777742,18.39063 124.238088,18.39063 C122.958906,18.39063 122.123441,17.396866 122.123441,15.8850336 C122.123441,14.3204349 123.106812,13.1891589 124.449952,13.1891589 C125.65558,13.1891589 126.332747,14.0350176 126.332747,15.5044771 L126.332747,15.7371282 L122.93732,15.7371282 L122.93732,15.8962264 C122.93732,17.0267029 123.455389,17.70307 124.333227,17.70307 C124.651423,17.70307 125.010393,17.6191238 125.316597,17.4600256 C125.550048,17.3440998 125.666773,17.2697474 126.057723,16.9963224 L126.4063,17.4496322 C126.216022,17.6399105 126.132075,17.6926767 125.857051,17.8621682 M129.886473,18.0316597 C129.494723,18.2850975 129.060601,18.3914295 128.363447,18.3914295 C128.214743,18.3914295 128.088423,18.3802366 127.961305,18.3698433 C127.665494,18.3482571 127.516789,18.3170771 127.145827,18.2003518 L127.273745,17.6295171 C127.401663,17.6614966 127.496003,17.6830828 127.569555,17.7038695 C127.802207,17.7462424 128.088423,17.7774224 128.320275,17.7774224 C129.230093,17.7774224 129.801727,17.4496322 129.801727,16.9315638 C129.801727,16.7316917 129.705788,16.5510074 129.51631,16.3927087 C129.357211,16.2551967 129.219699,16.1816437 128.743204,15.9489926 C128.14119,15.653182 127.950112,15.5572434 127.727854,15.3893508 C127.454671,15.1893979 127.293609,14.8708394 127.294531,14.5322993 C127.294531,13.7176207 128.034858,13.1787656 129.166134,13.1787656 C129.303646,13.1787656 129.45235,13.1899584 129.621842,13.2107451 C129.885673,13.2315318 130.023985,13.253118 130.362168,13.3266709 L130.213463,13.9078989 C129.759354,13.8135593 129.473137,13.7815798 129.198913,13.7815798 C128.511353,13.7815798 128.077231,14.0350176 128.077231,14.4371602 C128.077231,14.7225776 128.268308,14.8704829 128.892709,15.1766869 L129.241286,15.3469779 C129.768948,15.5996162 130.002398,15.7371282 130.224656,15.9489926 C130.456508,16.1704509 130.59402,16.5086345 130.59402,16.8364247 C130.59402,17.3129197 130.341382,17.7462424 129.886473,18.0316597 M78.9334826,27.8118004 C78.5737128,27.8853534 78.1931564,27.9381196 77.8333866,27.9381196 C75.6228014,27.9381196 74.1317557,26.4790534 74.1317557,24.3220339 C74.1317557,22.1450272 75.7922929,20.5804285 78.0876239,20.5804285 C78.7535977,20.5804285 79.2924528,20.6851615 80.0543652,20.9713783 L79.8321075,21.5949792 C79.6634154,21.542213 79.5362968,21.4894468 79.451551,21.4686601 C79.0155732,21.3396218 78.56308,21.2749799 78.1084106,21.2767829 C76.236009,21.2767829 74.9776143,22.4824113 74.9776143,24.2692677 C74.9776143,26.024944 76.1832427,27.2617525 77.8965462,27.2617525 C78.3522546,27.2617525 78.8911097,27.1658139 79.3564119,27.0075152 L79.3564119,24.4083786 L80.1606972,24.4083786 L80.1606972,27.4104573 C79.589063,27.6423089 79.3460185,27.7166613 78.9334826,27.8125999 M83.5025584,23.3074832 C82.8038056,23.3074832 82.2545571,23.8463383 82.1170451,24.6818036 L84.6866006,24.6290374 C84.6658139,23.8151583 84.210905,23.3074832 83.5025584,23.3074832 M84.9824113,27.3568916 C84.3907899,27.7262552 83.9039015,27.8853534 83.3642469,27.8853534 C82.0850656,27.8853534 81.2496003,26.8915894 81.2496003,25.3789575 C81.2496003,23.8151583 82.2329709,22.6846818 83.5761113,22.6846818 C84.7817397,22.6846818 85.4589063,23.5289415 85.4589063,24.998401 L85.4589063,25.2318516 L82.0642789,25.2318516 L82.0642789,25.3901503 C82.0642789,26.5214263 82.5823473,27.1977934 83.4601855,27.1977934 C83.7775823,27.1977934 84.1365526,27.1138471 84.4435561,26.954749 C84.6762072,26.8388232 84.7929325,26.7652702 85.1830828,26.4894468 L85.5332587,26.9451551 C85.3429805,27.1346338 85.2582347,27.1874001 84.9824113,27.3568916 M89.9216501,27.7582347 L89.9216501,24.7873361 C89.9216501,24.4179725 89.9216501,24.3540134 89.9104573,24.1533419 C89.8784778,23.6352734 89.6042533,23.3602494 89.1493444,23.3602494 C88.5992965,23.3602494 88.0060761,23.6880397 87.4144547,24.3332267 L87.4144547,27.7582347 L86.6853214,27.7582347 L86.6853214,22.8413815 L87.4152542,22.8413815 L87.4152542,23.5721138 C87.5679006,23.4271122 87.7303112,23.2927494 87.9013431,23.1699712 C88.3450592,22.8525744 88.799968,22.6942757 89.2660697,22.6942757 C89.7313719,22.6942757 90.0799488,22.842181 90.3341861,23.1387912 C90.5772306,23.4346019 90.6507835,23.7519987 90.6507835,24.5027183 L90.6507835,27.7582347 L89.9216501,27.7582347 L89.9216501,27.7582347 Z M94.6274384,22.2497602 L92.9349217,21.2032299 L93.4745763,20.5588423 L95.0087944,21.7956508 L94.6274384,22.2505596 L94.6274384,22.2497602 Z M94.0885833,23.3074832 C93.39063,23.3074832 92.8397825,23.8463383 92.70307,24.6818036 L95.2726255,24.6290374 C95.2518388,23.8151583 94.79693,23.3074832 94.0893828,23.3074832 L94.0885833,23.3074832 Z M95.5692357,27.3568916 C94.9776143,27.7270547 94.4907259,27.8853534 93.9502718,27.8853534 C92.6710905,27.8853534 91.8356252,26.8915894 91.8356252,25.379757 C91.8356252,23.8151583 92.8189958,22.6838823 94.1621362,22.6838823 C95.3685641,22.6838823 96.0449312,23.529741 96.0449312,24.9992005 L96.0449312,25.2310521 L92.6503038,25.2310521 L92.6503038,25.3901503 C92.6503038,26.5214263 93.1683722,27.1977934 94.0462104,27.1977934 C94.3636073,27.1977934 94.723377,27.1130476 95.0295811,26.954749 C95.2622322,26.8388232 95.3789575,26.7644707 95.7699073,26.4894468 L96.1192837,26.9443556 C95.9282059,27.1346338 95.8442597,27.1881996 95.5692357,27.3568916 Z M99.2596738,27.7582347 L98.5937,27.7582347 L96.5845859,22.8413815 L97.4088583,22.8413815 L98.9742565,26.7964503 L100.613208,22.842181 L101.364727,22.842181 L99.2596738,27.7582347 Z M104.146146,23.3074832 C103.447394,23.3074832 102.898145,23.8463383 102.759834,24.6818036 L105.330189,24.6290374 C105.309402,23.8151583 104.854493,23.3074832 104.146146,23.3074832 M105.625999,27.3568916 C105.034378,27.7262552 104.54749,27.8853534 104.008634,27.8853534 C102.728654,27.8853534 101.892389,26.8915894 101.892389,25.3789575 C101.892389,23.8151583 102.87576,22.6846818 104.219699,22.6846818 C105.425328,22.6846818 106.102494,23.5289415 106.102494,24.998401 L106.102494,25.2318516 L102.707867,25.2318516 L102.707867,25.3901503 C102.707867,26.5214263 103.225136,27.1977934 104.102974,27.1977934 C104.42117,27.1977934 104.780141,27.1138471 105.086345,26.954749 C105.319795,26.8388232 105.436521,26.7652702 105.82747,26.4894468 L106.176847,26.9451551 C105.986569,27.1346338 105.901823,27.1874001 105.625999,27.3568916" id="Shape" fill="#58585B" fill-rule="nonzero" mask="url(#mask-2)"></path>
                            </g>
                        </g>
                    </g>
                </g>
            </g>
        </g>
    </g>
</svg>