<?xml version="1.0" encoding="UTF-8"?>
<svg width="127px" height="50px" viewBox="0 0 127 50" version="1.1" xmlns="http://www.w3.org/2000/svg" xmlns:xlink="http://www.w3.org/1999/xlink">
    <title>the-microsetta-initiative-logo-rgb</title>
    <g id="Page-Home" stroke="none" stroke-width="1" fill="none" fill-rule="evenodd">
        <g id="Home-Desktop" transform="translate(-1367.000000, -1547.000000)" fill-rule="nonzero">
            <g id="Main" transform="translate(60.000000, 1522.000000)">
                <g id="Trusted-By" transform="translate(0.000000, 0.000000)">
                    <g id="Logos" transform="translate(237.000000, 0.000000)">
                        <g id="the-microsetta-initiative-logo-rgb" transform="translate(1070.000000, 25.000000)">
                            <g id="Group" transform="translate(49.895214, 10.538778)" fill="#76777A">
                                <polygon id="Path" points="2.5955006 1.12952341 2.5955006 6.2964922 1.36984754 6.2964922 1.36984754 1.12952341 -6.83042259e-15 1.12952341 -6.83042259e-15 0 3.96534814 0 3.96534814 1.12952341"></polygon>
                                <polygon id="Path" points="7.49811285 6.27245979 7.49811285 3.67695919 5.93600601 3.67695919 5.93600601 6.27245979 4.71035295 6.27245979 4.71035295 0 5.93600601 0 5.93600601 2.5955006 7.49811285 2.5955006 7.49811285 0 8.72376592 0 8.72376592 6.27245979 7.49811285 6.27245979"></polygon>
                                <polygon id="Path" points="9.73312726 6.27245979 9.73312726 0 13.2418596 0 13.2418596 1.12952341 10.9587803 1.12952341 10.9587803 2.5955006 13.1216975 2.5955006 13.1216975 3.7009916 10.9587803 3.7009916 10.9587803 5.19100121 13.265892 5.19100121 13.265892 6.2964922 9.73312726 6.2964922"></polygon>
                                <polygon id="Path" points="7.73843698 20.2593242 7.7624694 13.5302485 6.12826531 20.2593242 4.13357504 20.2593242 2.57146819 13.5302485 2.5955006 20.2593242 0.648875151 20.2593242 0.648875151 9.63699761 3.41260265 9.63699761 5.14293638 17.2552725 6.92133494 9.63699761 9.63699761 9.63699761 9.63699761 20.2593242"></polygon>
                                <polygon id="Path" points="11.2712017 20.2593242 11.2712017 9.63699761 13.386054 9.63699761 13.386054 20.2593242"></polygon>
                                <path d="M21.7973986,18.504958 C21.2927179,19.7546435 20.3314214,20.4035186 18.5530228,20.4035186 C16.990916,20.4035186 16.0055871,19.8507731 15.5009064,18.913509 C15.0202581,18.0483422 14.8039664,16.3901057 14.8039664,14.9241285 C14.8039664,13.5302485 14.9481609,12.0883037 15.4047767,11.1991045 C15.9575222,10.1176459 16.9428512,9.54086796 18.6251201,9.54086796 C20.5477131,9.54086796 21.6051393,10.4060348 21.9175607,11.7278175 C22.0857875,12.4247575 22.1338524,13.0496003 22.1338524,13.6023458 L20.0670649,13.6023458 C20.0670649,13.3139568 20.019,12.4728223 19.8027083,12.0642713 C19.5864166,11.6316879 19.2499628,11.3913638 18.5770552,11.3913638 C17.9281801,11.3913638 17.5196291,11.6797527 17.3033374,12.0883037 C17.0389808,12.5929844 16.9668836,13.9387995 16.9668836,14.9241285 C16.9668836,16.1738139 17.0630132,17.3754346 17.3273698,17.9041477 C17.5917263,18.4328608 18.0723746,18.5770552 18.6010877,18.5770552 C19.2259304,18.5770552 19.6344814,18.3367311 19.8267407,17.8320504 C20.019,17.3514022 20.0910973,16.7505919 20.0910973,16.3660733 L22.1578848,16.3660733 C22.10982,17.0389808 22.0136903,17.9522125 21.7973986,18.504958 Z" id="Path"></path>
                                <path d="M29.8482569,14.5636423 C29.6319652,15.0202581 29.271479,15.3326795 28.8869604,15.4288091 L30.6172942,20.2593242 L28.4063122,20.2593242 L26.9643674,15.9334898 L25.4743578,15.9334898 L25.4743578,20.2593242 L23.4316027,20.2593242 L23.4316027,9.63699761 L27.5411453,9.63699761 C28.5505066,9.63699761 29.3676087,10.0215162 29.7280949,10.6703914 C29.9924514,11.1991045 30.1366459,11.8239472 30.1366459,12.7371789 C30.1606783,13.5783133 30.0405162,14.1550913 29.8482569,14.5636423 Z M27.9977611,11.9921741 C27.9016315,11.6797527 27.5892101,11.463461 27.1566267,11.463461 L25.4983902,11.463461 C25.4983902,11.463461 25.4983902,14.1070264 25.4983902,14.2031561 C25.5224226,14.2031561 27.2046915,14.2031561 27.2287239,14.2031561 C27.5651777,14.1791237 27.8535667,14.0349292 27.9496963,13.8186375 C28.045826,13.6023458 28.0938908,13.1937947 28.0938908,12.9054058 C28.0938908,12.5929844 28.045826,12.1844334 27.9977611,11.9921741 Z" id="Shape"></path>
                                <path d="M38.3797636,11.2952341 C38.6921849,11.9921741 38.8363794,13.5062161 38.8363794,14.8760636 C38.8363794,16.3180084 38.7642822,17.399467 38.2836339,18.6491525 C37.8991153,19.6825462 36.9137864,20.4035186 35.1113554,20.4035186 C33.693443,20.4035186 32.4437575,19.9469028 31.9390769,18.6731849 C31.5545583,17.7359208 31.4103638,16.2459112 31.4103638,14.9241285 C31.4103638,13.6504106 31.5064934,12.2084658 31.9390769,11.2952341 C32.3956927,10.3099052 33.3089244,9.54086796 35.1113554,9.54086796 C36.9137864,9.51683555 37.9231477,10.2137755 38.3797636,11.2952341 Z M36.3850733,17.9281801 C36.6494298,17.4715642 36.7695919,15.9334898 36.7695919,14.9241285 C36.7695919,14.0108968 36.6974946,12.7371789 36.4331381,12.0642713 C36.2649112,11.6316879 35.8563602,11.2952341 35.1594202,11.2952341 C34.4144154,11.2952341 34.1260265,11.5836231 33.8857023,12.0642713 C33.6694106,12.4968548 33.5492485,13.9868644 33.5492485,14.9481609 C33.5492485,15.9334898 33.693443,17.4715642 33.9577996,17.9522125 C34.1740913,18.3607635 34.5105451,18.6010877 35.1834526,18.6010877 C35.8323278,18.6010877 36.1447491,18.3126987 36.3850733,17.9281801 Z" id="Shape"></path>
                                <path d="M43.4746351,20.4035186 C41.2396207,20.4035186 40.2542918,19.7065787 40.0139676,18.3607635 C39.9418704,17.9762449 39.9418704,17.2552725 39.9418704,17.1591429 L41.9846255,17.1591429 C41.9846255,17.2552725 42.0086579,17.8560829 42.0567227,18.0243097 C42.2249496,18.5530228 42.6335007,18.7212497 43.4506027,18.7212497 C44.3638344,18.7212497 44.7243206,18.3607635 44.7243206,17.5676939 C44.7243206,16.8467215 44.2917372,16.4141381 43.6188296,16.0536519 C43.1622137,15.8133278 42.5854358,15.5249388 42.1047876,15.2846147 C40.7109076,14.5876747 39.9418704,13.8186375 39.9418704,12.280563 C39.9418704,10.646359 41.1194586,9.56490037 43.3304406,9.56490037 C45.4212606,9.56490037 46.3585247,10.4781321 46.5988488,11.7758824 C46.6469136,12.0642713 46.7190109,12.5929844 46.7190109,12.8813734 L44.6522233,12.8813734 C44.6522233,12.7852437 44.6281909,12.3766927 44.5801261,12.0883037 C44.459964,11.6076555 44.1235103,11.3192665 43.3064082,11.3192665 C42.4412414,11.3192665 42.0326903,11.6316879 42.0326903,12.2565306 C42.0326903,12.9534706 42.3451117,13.3379892 43.4506027,13.8667023 C43.8591537,14.0589616 44.5080289,14.4194478 44.9886771,14.6597719 C46.0701357,15.2125174 46.8151405,16.0055871 46.8151405,17.5917263 C46.8151405,19.3460925 45.7817468,20.4035186 43.4746351,20.4035186 Z" id="Path"></path>
                                <polygon id="Path" points="48.1369232 20.2593242 48.1369232 9.63699761 54.0729292 9.63699761 54.0729292 11.5355582 50.2037107 11.5355582 50.2037107 14.0108968 53.8806699 14.0108968 53.8806699 15.8613926 50.2037107 15.8613926 50.2037107 18.3847959 54.1209941 18.3847959 54.1209941 20.2593242"></polygon>
                                <polygon id="Path" points="59.5042546 11.5355582 59.5042546 20.2593242 57.4134346 20.2593242 57.4134346 11.5355582 55.106323 11.5355582 55.106323 9.63699761 61.8113662 9.63699761 61.8113662 11.5355582 59.5042546 11.5355582"></polygon>
                                <polygon id="Path" points="67.1225295 11.5355582 67.1225295 20.2593242 65.0317096 20.2593242 65.0317096 11.5355582 62.7245979 11.5355582 62.7245979 9.63699761 69.4296411 9.63699761 69.4296411 11.5355582 67.1225295 11.5355582"></polygon>
                                <path d="M71.2561045,20.2593242 L69.1652846,20.2593242 L71.80885,9.63699761 L74.6206424,9.63699761 L77.0479161,20.2593242 L74.9330637,20.2593242 L74.3803182,17.687856 L71.8328824,17.687856 L71.2561045,20.2593242 Z M73.3228921,12.8092761 C73.2507948,12.4728223 73.1546652,11.5836231 73.1546652,11.5836231 C73.1546652,11.5836231 73.0345031,12.4728223 72.9624059,12.8333085 C72.8903086,13.265892 72.50579,14.9000961 72.2174011,16.0055871 L73.9717672,16.0055871 C73.7554755,14.9481609 73.4190217,13.2418596 73.3228921,12.8092761 Z" id="Shape"></path>
                                <polygon id="Path" points="0.600810325 34.8469988 0.600810325 24.2246723 2.71566267 24.2246723 2.71566267 34.8469988 0.600810325 34.8469988"></polygon>
                                <polygon id="Path" points="8.94005763 34.8469988 6.32052462 28.6947011 6.32052462 34.8469988 4.37389917 34.8469988 4.37389917 24.2246723 6.53681633 24.2246723 9.08425211 30.4250349 9.08425211 24.2246723 11.0308776 24.2246723 11.0308776 34.8469988 8.94005763 34.8469988"></polygon>
                                <polygon id="Path" points="12.6650816 34.8469988 12.6650816 24.2246723 14.779934 24.2246723 14.779934 34.8469988 12.6650816 34.8469988"></polygon>
                                <polygon id="Path" points="20.3554538 26.1232329 20.3554538 34.8469988 18.2646339 34.8469988 18.2646339 26.1232329 15.9575222 26.1232329 15.9575222 24.2246723 22.6625655 24.2246723 22.6625655 26.1232329"></polygon>
                                <polygon id="Path" points="23.8161213 34.8469988 23.8161213 24.2246723 25.9309736 24.2246723 25.9309736 34.8469988 23.8161213 34.8469988"></polygon>
                                <path d="M29.1753494,34.8469988 L27.0845294,34.8469988 L29.7280949,24.2246723 L32.5398872,24.2246723 L34.9671609,34.8469988 L32.8523086,34.8469988 L32.2995631,32.2755307 L29.7521273,32.2755307 L29.1753494,34.8469988 Z M31.2661693,27.3969508 C31.1940721,27.060497 31.0979424,26.1712978 31.0979424,26.1712978 C31.0979424,26.1712978 30.9777804,27.060497 30.9056831,27.4209832 C30.8335859,27.8535667 30.4490673,29.4877707 30.1606783,30.5932617 L31.9150445,30.5932617 C31.6987527,29.5358356 31.362299,27.8295342 31.2661693,27.3969508 Z" id="Shape"></path>
                                <polygon id="Path" points="39.1968656 26.1232329 39.1968656 34.8469988 37.1060457 34.8469988 37.1060457 26.1232329 34.798934 26.1232329 34.798934 24.2246723 41.5039772 24.2246723 41.5039772 26.1232329"></polygon>
                                <polygon id="Path" points="42.6575331 34.8469988 42.6575331 24.2246723 44.7723854 24.2246723 44.7723854 34.8469988 42.6575331 34.8469988"></polygon>
                                <polygon id="Path" points="51.09291 34.8469988 48.5214418 34.8469988 45.9259412 24.2246723 48.0888584 24.2246723 49.8432246 32.2514982 51.6696879 24.2246723 53.7605079 24.2246723"></polygon>
                                <polygon id="Path" points="54.9140637 34.8469988 54.9140637 24.2246723 60.8500697 24.2246723 60.8500697 26.1232329 57.0048836 26.1232329 57.0048836 28.5985715 60.6818428 28.5985715 60.6818428 30.4490673 57.0048836 30.4490673 57.0048836 32.9724706 60.8981345 32.9724706 60.8981345 34.8469988"></polygon>
                                <path d="M62.6044359,24.3792113 L62.6044359,25.4506399 L62.4121766,25.4506399 L62.4121766,24.3792113 L62.0516904,24.3792113 L62.0516904,24.2261501 L62.964922,24.2261501 L62.964922,24.3792113 L62.6044359,24.3792113 Z M64.2867048,25.4506399 L64.2867048,24.4047215 L64.2867048,24.4047215 L63.9021862,25.4506399 L63.7820241,25.4506399 L63.3975055,24.4047215 L63.3975055,24.4047215 L63.3975055,25.4506399 L63.2052462,25.4506399 L63.2052462,24.2006399 L63.4936351,24.2006399 L63.8541213,25.1445174 L64.1905751,24.2006399 L64.4789641,24.2006399 L64.4789641,25.4506399 L64.2867048,25.4506399 Z" id="Shape"></path>
                            </g>
                            <g id="Group">
                                <g>
                                    <circle id="Oval" fill="#F18A00" transform="translate(12.120690, 12.120690) rotate(-22.500428) translate(-12.120690, -12.120690) " cx="12.1206898" cy="12.1206898" r="9.27674565"></circle>
                                    <path d="M12.1162606,3.7616374 C16.7304839,3.7616374 20.4795404,7.51069382 20.4795404,12.1249171 C20.4795404,16.7391404 16.7304839,20.4881968 12.1162606,20.4881968 C7.50203735,20.4881968 3.75298092,16.7391404 3.75298092,12.1249171 C3.75298092,7.51069382 7.50203735,3.7616374 12.1162606,3.7616374 M12.1162606,1.93517401 C6.492676,1.93517401 1.92651753,6.50133248 1.92651753,12.1249171 C1.92651753,17.7485018 6.492676,22.3146602 12.1162606,22.3146602 C17.7398453,22.3146602 22.3060038,17.7485018 22.3060038,12.1249171 C22.3060038,6.50133248 17.7398453,1.93517401 12.1162606,1.93517401 L12.1162606,1.93517401 Z" id="Shape" fill="#FFFFFF"></path>
                                </g>
                                <g transform="translate(5.291055, 9.096833)">
                                    <g transform="translate(0.913232, 0.937264)">
                                        <circle id="Oval" fill="#00609C" cx="17.7839856" cy="17.7839856" r="17.4955967"></circle>
                                        <path d="M17.7839856,35.5679712 C7.97876111,35.5679712 3.55271368e-15,27.5892101 3.55271368e-15,17.7839856 C3.55271368e-15,7.97876111 7.97876111,0 17.7839856,0 C27.5892101,0 35.5680254,7.97876111 35.5680254,17.7839856 C35.5920036,27.5892101 27.6132425,35.5679712 17.7839856,35.5679712 Z M17.7839856,0.576777912 C8.3152149,0.576777912 0.600810325,8.29118248 0.600810325,17.7599532 C0.600810325,27.2287239 8.3152149,34.9431285 17.7839856,34.9431285 C27.2527563,34.9431285 34.9671609,27.2287239 34.9671609,17.7599532 C34.9671609,8.29118248 27.2767888,0.576777912 17.7839856,0.576777912 Z" id="Shape" fill="#FFFFFF"></path>
                                    </g>
                                    <circle id="Oval" fill="#00BED6" cx="13.6504106" cy="23.8641861" r="1"></circle>
                                    <circle id="Oval" fill="#00BED6" cx="17.2312401" cy="26.3635571" r="1"></circle>
                                    <circle id="Oval" fill="#00BED6" cx="12.3766927" cy="33.3329568" r="1"></circle>
                                    <circle id="Oval" fill="#00BED6" cx="31.6987527" cy="27.3008212" r="1"></circle>
                                    <circle id="Oval" fill="#00BED6" cx="22.0136903" cy="9.94941898" r="1"></circle>
                                    <circle id="Oval" fill="#00BED6" cx="9.08425211" cy="23.0951489" r="1"></circle>
                                    <circle id="Oval" fill="#00BED6" cx="4.8064826" cy="26.5558164" r="1"></circle>
                                    <circle id="Oval" fill="#00BED6" cx="14.6117071" cy="29.1993818" r="1"></circle>
                                    <circle id="Oval" fill="#00BED6" cx="19.6585138" cy="30.6893914" r="2.45130613"></circle>
                                    <circle id="Oval" fill="#00BED6" cx="26.2193626" cy="6.56084875" r="2.45130613"></circle>
                                    <circle id="Oval" fill="#00BED6" cx="15.0923554" cy="13.6263782" r="1"></circle>
                                    <circle id="Oval" fill="#00BED6" cx="9.8052245" cy="17.2312401" r="1"></circle>
                                    <circle id="Oval" fill="#00BED6" cx="16.6784946" cy="6.63294599" r="1"></circle>
                                    <circle id="Oval" fill="#00BED6" cx="18.1444718" cy="2.61953302" r="1"></circle>
                                    <circle id="Oval" fill="#00BED6" cx="13.3620216" cy="5.33519569" r="1"></circle>
                                    <circle id="Oval" fill="#00BED6" cx="18.2165691" cy="14.8039664" r="1"></circle>
                                    <circle id="Oval" fill="#00BED6" cx="4.30180193" cy="21.2927179" r="1"></circle>
                                    <circle id="Oval" fill="#00BED6" cx="24.7774178" cy="12.3766927" r="1"></circle>
                                    <circle id="Oval" fill="#00BED6" cx="29.4637383" cy="11.9921741" r="1"></circle>
                                    <circle id="Oval" fill="#00BED6" cx="34.1981237" cy="22.4703062" r="1"></circle>
                                    <circle id="Oval" fill="#00BED6" cx="6.12826531" cy="16.8707539" r="1"></circle>
                                    <circle id="Oval" fill="#00BED6" cx="32.9484382" cy="18.6251201" r="1"></circle>
                                    <circle id="Oval" fill="#00BED6" cx="21.8694958" cy="4.49406123" r="1"></circle>
                                    <circle id="Oval" fill="#00BED6" cx="29.8963218" cy="24.032413" r="1"></circle>
                                    <circle id="Oval" fill="#00BED6" cx="17.9281801" cy="10.4540997" r="1"></circle>
                                    <circle id="Oval" fill="#00BED6" cx="9.08425211" cy="13.3379892" r="1"></circle>
                                    <circle id="Oval" fill="#00BED6" cx="2.90792197" cy="16.1257491" r="1"></circle>
                                    <circle id="Oval" fill="#00BED6" cx="6.2964922" cy="11.5595907" r="1"></circle>
                                    <circle id="Oval" fill="#00BED6" cx="7.2097239" cy="7.54617768" r="1"></circle>
                                    <circle id="Oval" fill="#00BED6" cx="23.9603158" cy="28.2140529" r="1"></circle>
                                    <circle id="Oval" fill="#00BED6" cx="34.1260265" cy="14.5876747" r="1"></circle>
                                    <circle id="Oval" fill="#00BED6" cx="27.9016315" cy="28.5745391" r="1"></circle>
                                    <circle id="Oval" fill="#00BED6" cx="25.0417743" cy="33.1406975" r="1"></circle>
                                    <circle id="Oval" fill="#00BED6" cx="29.6800301" cy="16.7986567" r="1"></circle>
                                    <circle id="Oval" fill="#00BED6" cx="30.6893914" cy="8.5074742" r="1"></circle>
                                    <circle id="Oval" fill="#00BED6" cx="13.5062161" cy="19.3701249" r="1.6582365"></circle>
                                    <circle id="Oval" fill="#00BED6" cx="11.5595907" cy="9.68506244" r="1.6582365"></circle>
                                    <circle id="Oval" fill="#00BED6" cx="9.94941898" cy="28.1419556" r="1.6582365"></circle>
                                    <circle id="Oval" fill="#00BED6" cx="22.7586951" cy="20.2833566" r="5.79181153"></circle>
                                    <path d="M18.6972173,37.418467 C8.38731214,37.418467 0,29.0311549 0,18.7212497 C0,8.41134455 8.38731214,0 18.6972173,0 C29.0071225,0 37.3944346,8.38731214 37.3944346,18.6972173 C37.3944346,29.0071225 29.0071225,37.418467 18.6972173,37.418467 Z M18.6972173,2.42727371 C9.73312726,2.42727371 2.42727371,9.73312726 2.42727371,18.6972173 C2.42727371,27.6613074 9.73312726,34.9671609 18.6972173,34.9671609 C27.6613074,34.9671609 34.9671609,27.6613074 34.9671609,18.6972173 C34.9671609,9.73312726 27.6853398,2.42727371 18.6972173,2.42727371 Z" id="Shape" fill="#FCFAF8"></path>
                                </g>
                                <g transform="translate(6.901227, 36.950400)">
                                    <path d="M6.51278392,12.1363686 C3.41260265,12.1363686 0.913231694,9.6129652 0.913231694,6.53681633 C0.913231694,3.46066747 3.43663506,0.937264107 6.51278392,0.937264107 C9.6129652,0.937264107 12.1123362,3.46066747 12.1123362,6.53681633 C12.1123362,9.6129652 9.58893279,12.1363686 6.51278392,12.1363686 Z" id="Path" fill="#FFCD00"></path>
                                    <path d="M6.51278392,1.82646339 C9.10828453,1.82646339 11.2231369,3.94131573 11.2231369,6.53681633 C11.2231369,9.13231694 9.10828453,11.2471693 6.51278392,11.2471693 C3.91728332,11.2471693 1.80243097,9.13231694 1.80243097,6.53681633 C1.80243097,3.94131573 3.91728332,1.82646339 6.51278392,1.82646339 M6.51278392,0 C2.90792197,0 0,2.93195439 0,6.51278392 C0,10.0936135 2.90792197,13.0496003 6.51278392,13.0496003 C10.1176459,13.0496003 13.0255678,10.1176459 13.0255678,6.53681633 C13.0255678,2.9559868 10.1176459,0 6.51278392,0 L6.51278392,0 Z" id="Shape" fill="#FFFFFF"></path>
                                </g>
                            </g>
                        </g>
                    </g>
                </g>
            </g>
        </g>
    </g>
</svg>